<svg id="Layer_1" data-name="Layer 1" xmlns="http://www.w3.org/2000/svg" viewBox="0 0 784.27958 890.55804">
  <title>CoronaWatchLogo</title>
  <g>
    <path d="M433.582,1137.7959c-8.86474,8.74219-20.31543,12.80469-32.75049,12.80469-32.0122,0-45.55566-22.03907-45.67871-44.44727-.12353-22.53125,14.52832-45.43262,45.67871-45.43262a44.46458,44.46458,0,0,1,31.64258,13.17481l-10.835,10.46484a29.60985,29.60985,0,0,0-20.80762-8.126c-20.8081,0-29.7959,15.51367-29.67285,29.91894.12305,14.28223,8.37207,29.18066,29.67285,29.18066a31.73015,31.73015,0,0,0,21.66944-8.74218Z" transform="translate(-355.15206 -260.04255)" style="fill: #14499e"/>
    <path d="M500.68164,1118.34277c0,17.4834-11.94287,31.64258-31.64258,31.64258s-31.51953-14.15918-31.51953-31.64258c0-17.36035,12.06592-31.64257,31.396-31.64257C488.24609,1086.7002,500.68164,1100.98242,500.68164,1118.34277Zm-48.14111,0c0,9.23438,5.54052,17.85254,16.49853,17.85254s16.49854-8.61816,16.49854-17.85254c0-9.11132-6.40283-17.97656-16.49854-17.97656C458.2041,1100.36621,452.54053,1109.23145,452.54053,1118.34277Z" transform="translate(-355.15206 -260.04255)" style="fill: #14499e"/>
    <path d="M524.93506,1087.93066l1.10791,7.01856c4.67871-7.51074,10.958-8.61914,17.11426-8.61914,6.27929,0,12.3125,2.46289,15.63672,5.78711l-6.772,13.05078a15.00854,15.00854,0,0,0-10.83447-3.93945c-7.87988,0-15.14453,4.18652-15.14453,15.39062v32.01172H511.022v-60.7002Z" transform="translate(-355.15206 -260.04255)" style="fill: #14499e"/>
    <path d="M624.78662,1118.34277c0,17.4834-11.94287,31.64258-31.64258,31.64258s-31.51953-14.15918-31.51953-31.64258c0-17.36035,12.06592-31.64257,31.39649-31.64257C612.35107,1086.7002,624.78662,1100.98242,624.78662,1118.34277Zm-48.14111,0c0,9.23438,5.54053,17.85254,16.49853,17.85254s16.49854-8.61816,16.49854-17.85254c0-9.11132-6.40283-17.97656-16.49854-17.97656C582.30908,1100.36621,576.64551,1109.23145,576.64551,1118.34277Z" transform="translate(-355.15206 -260.04255)" style="fill: #14499e"/>
    <path d="M679.81982,1148.63086v-31.76563c0-9.23437-5.04785-16.252-14.65136-16.252-9.23438,0-15.51367,7.75586-15.51367,16.99024v31.02734H634.75732v-60.82324h13.41993l.98535,8.25c6.15625-6.03321,12.3125-9.11133,19.94629-9.11133,14.28222,0,25.73242,10.71191,25.73242,29.7959v31.88867Z" transform="translate(-355.15206 -260.04255)" style="fill: #14499e"/>
    <path d="M755.90918,1087.93066h14.40527v60.7002H756.15527l-.73925-8.86523c-3.44727,7.1416-12.92725,10.58886-19.69873,10.71191-17.97657.123-31.27344-10.958-31.27344-32.25781,0-20.93164,13.91308-31.88965,31.64258-31.76563,8.126,0,15.88232,3.81641,19.32959,9.84961Zm-36.44385,30.28907c0,11.57324,8.00293,18.46777,17.97559,18.46777,23.63916,0,23.63916-36.81348,0-36.81348C727.46826,1099.874,719.46533,1106.64551,719.46533,1118.21973Z" transform="translate(-355.15206 -260.04255)" style="fill: #14499e"/>
    <path d="M839.13867,1062.44434H842.832l26.34863,78.79882,26.71778-78.79882h7.14062L872.62793,1148.877h-7.1416l-13.666-40.38379-10.835-34.10546-10.835,33.85839-13.79,40.63086h-7.14062l-30.165-86.43261h7.01758l26.59472,78.79882Z" transform="translate(-355.15206 -260.04255)" style="fill: #14499e"/>
    <path d="M961.76855,1087.80762v60.82324h-6.03222v-12.92773a28.43759,28.43759,0,0,1-24.8711,13.91308c-16.99121,0-30.90429-12.80566-30.90429-31.39648,0-18.5918,13.91308-31.15039,30.90429-31.15039,9.84961,0,19.82227,4.55566,24.8711,14.03613v-13.29785Zm-55.77441,30.41211c0,15.2666,11.08106,25.48632,24.87109,25.48632,33.8584,0,33.8584-50.8496,0-50.8496C917.0752,1092.85645,905.99414,1102.95215,905.99414,1118.21973Z" transform="translate(-355.15206 -260.04255)" style="fill: #14499e"/>
    <path d="M989.46973,1069.46289v18.34473h20.68457v5.04883H989.46973V1129.916c0,8.249,1.72363,14.03613,11.2041,14.03613a22.561,22.561,0,0,0,9.35742-2.46289l2.09375,4.92578a26.59137,26.59137,0,0,1-11.45117,3.07812c-12.92774,0-17.11426-7.63378-17.11426-19.57714v-37.05957H970.63184v-5.04883h12.92773v-17.72949Z" transform="translate(-355.15206 -260.04255)" style="fill: #14499e"/>
    <path d="M1073.93164,1140.13574a31.111,31.111,0,0,1-22.16211,9.11035c-17.11426,0-31.27344-11.81933-31.27344-31.02636s13.667-31.02735,31.27344-31.02735a31.63409,31.63409,0,0,1,22.16211,9.11133l-3.94043,3.81641a25.78667,25.78667,0,0,0-18.22168-7.26367c-13.79,0-25.36328,8.9873-25.36328,25.36328,0,16.375,11.57324,25.36328,25.36328,25.36328a25.75621,25.75621,0,0,0,18.09863-7.51074Z" transform="translate(-355.15206 -260.04255)" style="fill: #14499e"/>
    <path d="M1092.0293,1062.44434v36.6914c4.9248-8.74219,13.41992-12.0664,21.916-12.18945,16.99121,0,25.48633,10.958,25.48633,26.84082v34.84375h-5.91016v-34.84375c0-12.55859-5.90918-21.05371-19.57617-21.05371-12.80468,0-21.66992,9.84961-21.66992,22.53125v33.36621h-6.0332v-86.18652Z" transform="translate(-355.15206 -260.04255)" style="fill: #14499e"/>
  </g>
  <g>
    <g>
      <path d="M750,929.78418A291.74854,291.74854,0,1,1,956.29688,844.333,289.83581,289.83581,0,0,1,750,929.78418Z" transform="translate(-355.15206 -260.04255)" style="fill: #14499e"/>
      <path d="M750,354.28833a282.80974,282.80974,0,1,1-110.44257,22.29178A281.95523,281.95523,0,0,1,750,354.28833m0-16c-165.54608,0-299.74768,134.20169-299.74768,299.74768S584.45392,937.78369,750,937.78369s299.74768-134.2016,299.74768-299.74768S915.54608,338.28833,750,338.28833Z" transform="translate(-355.15206 -260.04255)" style="fill: #252e6b"/>
    </g>
    <g>
      <path d="M801.38527,260.04255H698.61473a20.49747,20.49747,0,0,0-20.43739,20.43738v0a20.49737,20.49737,0,0,0,20.43729,20.43729h16.8366a14.11146,14.11146,0,0,1,14.11146,14.11146v68.22184A20.49737,20.49737,0,0,0,750,403.68786h0a20.49737,20.49737,0,0,0,20.43729-20.43729V315.02873a14.11146,14.11146,0,0,1,14.11146-14.11146h16.8366A20.49737,20.49737,0,0,0,821.82266,280.48v0A20.49747,20.49747,0,0,0,801.38527,260.04255Z" transform="translate(-355.15206 -260.04255)" style="fill: #14499e"/>
      <path d="M1053.61663,407.08916l-26.35654-26.35655L1007.30343,360.776l-26.35655-26.35654a20.49746,20.49746,0,0,0-28.90282,0l0,0a20.49738,20.49738,0,0,0,0,28.9027L963.9493,375.2274a14.11146,14.11146,0,0,1,0,19.95662l-48.24013,48.24013a20.49737,20.49737,0,0,0,0,28.90269l0,0a20.49737,20.49737,0,0,0,28.90269,0L992.852,424.08674a14.11146,14.11146,0,0,1,19.95662,0l11.90527,11.90527a20.49738,20.49738,0,0,0,28.9027,0l0,0A20.49746,20.49746,0,0,0,1053.61663,407.08916Z" transform="translate(-355.15206 -260.04255)" style="fill: #14499e"/>
      <path d="M1127.99349,689.42131V586.65077a20.49747,20.49747,0,0,0-20.43738-20.43739h0a20.49738,20.49738,0,0,0-20.4373,20.43729v16.8366a14.11146,14.11146,0,0,1-14.11146,14.11146h-68.22184A20.49737,20.49737,0,0,0,984.34818,638.036v0a20.49737,20.49737,0,0,0,20.43729,20.43729h68.22184a14.11146,14.11146,0,0,1,14.11146,14.11146v16.8366a20.49738,20.49738,0,0,0,20.4373,20.43729h0A20.49747,20.49747,0,0,0,1127.99349,689.42131Z" transform="translate(-355.15206 -260.04255)" style="fill: #14499e"/>
      <path d="M980.94688,941.65268l26.35655-26.35655,19.95666-19.95666,26.35654-26.35655a20.49746,20.49746,0,0,0,0-28.90282l0,0a20.49738,20.49738,0,0,0-28.9027,0l-11.90527,11.90527a14.11146,14.11146,0,0,1-19.95662,0l-48.24013-48.24013a20.49737,20.49737,0,0,0-28.90269,0l0,0a20.49737,20.49737,0,0,0,0,28.90269l48.24013,48.24013a14.11146,14.11146,0,0,1,0,19.95662L952.044,912.75a20.49738,20.49738,0,0,0,0,28.9027l0,0A20.49747,20.49747,0,0,0,980.94688,941.65268Z" transform="translate(-355.15206 -260.04255)" style="fill: #14499e"/>
      <path d="M698.61473,1016.02953H801.38527a20.49747,20.49747,0,0,0,20.43739-20.43738v0a20.49738,20.49738,0,0,0-20.43729-20.4373h-16.8366a14.11146,14.11146,0,0,1-14.11146-14.11146V892.82151A20.49737,20.49737,0,0,0,750,872.38422h0a20.49737,20.49737,0,0,0-20.43729,20.43729v68.22184a14.11146,14.11146,0,0,1-14.11146,14.11146h-16.8366a20.49738,20.49738,0,0,0-20.43729,20.4373v0A20.49747,20.49747,0,0,0,698.61473,1016.02953Z" transform="translate(-355.15206 -260.04255)" style="fill: #14499e"/>
      <path d="M446.38337,868.98292l26.35654,26.35655,19.95666,19.95666,26.35655,26.35655a20.49747,20.49747,0,0,0,28.90282,0l0,0a20.49738,20.49738,0,0,0,0-28.9027L536.0507,900.84468a14.11146,14.11146,0,0,1,0-19.95662l48.24013-48.24013a20.49737,20.49737,0,0,0,0-28.90269l0,0a20.49737,20.49737,0,0,0-28.90269,0L507.148,851.98534a14.11146,14.11146,0,0,1-19.95662,0l-11.90527-11.90527a20.49738,20.49738,0,0,0-28.9027,0l0,0A20.49746,20.49746,0,0,0,446.38337,868.98292Z" transform="translate(-355.15206 -260.04255)" style="fill: #14499e"/>
      <path d="M372.00651,586.65077V689.42131a20.49747,20.49747,0,0,0,20.43738,20.43739h0a20.49738,20.49738,0,0,0,20.4373-20.43729v-16.8366a14.11146,14.11146,0,0,1,14.11146-14.11146h68.22184a20.49737,20.49737,0,0,0,20.43729-20.43729v0a20.49737,20.49737,0,0,0-20.43729-20.43729H426.99269a14.11146,14.11146,0,0,1-14.11146-14.11146v-16.8366a20.49738,20.49738,0,0,0-20.4373-20.43729h0A20.49747,20.49747,0,0,0,372.00651,586.65077Z" transform="translate(-355.15206 -260.04255)" style="fill: #14499e"/>
      <path d="M519.05312,334.41941,492.69657,360.776l-19.95666,19.95666-26.35654,26.35655a20.49746,20.49746,0,0,0,0,28.90282l0,0a20.49738,20.49738,0,0,0,28.9027,0l11.90527-11.90527a14.11146,14.11146,0,0,1,19.95662,0l48.24013,48.24013a20.49737,20.49737,0,0,0,28.90269,0l0,0a20.49737,20.49737,0,0,0,0-28.90269L536.0507,395.184a14.11146,14.11146,0,0,1,0-19.95662L547.956,363.32213a20.49738,20.49738,0,0,0,0-28.9027l0,0A20.49746,20.49746,0,0,0,519.05312,334.41941Z" transform="translate(-355.15206 -260.04255)" style="fill: #14499e"/>
      <path d="M801.38527,260.04255H698.61473a20.49747,20.49747,0,0,0-20.43739,20.43738v0a20.49737,20.49737,0,0,0,20.43729,20.43729h16.8366a14.11146,14.11146,0,0,1,14.11146,14.11146v68.22184A20.49737,20.49737,0,0,0,750,403.68786h0a20.49737,20.49737,0,0,0,20.43729-20.43729V315.02873a14.11146,14.11146,0,0,1,14.11146-14.11146h16.8366A20.49737,20.49737,0,0,0,821.82266,280.48v0A20.49747,20.49747,0,0,0,801.38527,260.04255Z" transform="translate(-355.15206 -260.04255)" style="fill: #14499e"/>
    </g>
  </g>
</svg>
